# xmcd
#
# Track frame offsets: 
#        150
#        17263
#        36625
#        62096
#        75594
#        98174
#        134528
#        150185
#        168606
#        187093
#        207658
#        227444
#        261227
#        276613
#        290127
#
# Disc length: 4088 seconds
#
# Revision: 3
# Processed by: cddbd v1.5.2PL0 Copyright (c) Steve Scherf et al.
# Submitted via: ExactAudioCopyFreeDBPlugin 1.0
#
DISCID=de0ff60f
DTITLE=Kenny Wayne Shepherd - Goin' Home
DYEAR=2014
DGENRE=Blues Rock
TTITLE0=Kenny Wayne Shepherd feat. The Rebirth Brass Band - Palace Of 
TTITLE0=The King
TTITLE1=Everything Gonna be Alright
TTITLE2=Kenny Wayne Shepherd feat. Joe Walsh and Kim Wilson - I Love The
TTITLE2=Life I Live
TTITLE3=The House Is Rockin'
TTITLE4=Kenny Wayne Shepherd feat. Warren Haynes - Breaking Up Somebod
TTITLE4=y's Home
TTITLE5=You Done Lost Your Good Thing Now
TTITLE6=Kenny Wayne Shepherd feat. Pastor Brady Blade, Sr. - You Can't
TTITLE6=Judge A Book By The Cover
TTITLE7=Boogie Man
TTITLE8=Looking Back
TTITLE9=Kenny Wayne Shepherd feat. Ringo Starr - Cut You Lose
TTITLE10=Kenny Wayne Shepherd feat. Keb' Mo' and The Rebirth Brass Band 
TTITLE10=/ Born Under A Bad Sign
TTITLE11=Kenny Wayne Shepherd feat. Robert Randolph - Still A Fool
TTITLE12=Kenny Wayne Shepherd feat. The Rebirth Brass Band - Three Hun
TTITLE12=dred Pounds Of Joy
TTITLE13=Can You Hear Me
TTITLE14=Kenny Wayne Shepherd feat. The Rebirth Brass Band - Trick Bag
EXTD=
EXTT0=
EXTT1=
EXTT2=
EXTT3=
EXTT4=
EXTT5=
EXTT6=
EXTT7=
EXTT8=
EXTT9=
EXTT10=
EXTT11=
EXTT12=
EXTT13=
EXTT14=
PLAYORDER=
